<svg width="535" height="233" viewBox="0 0 535 233" fill="none" xmlns="http://www.w3.org/2000/svg">
<path d="M427.08 69.7154C434.35 57.3854 440.94 53.8454 441.91 46.3854C443.73 32.3354 430.47 30.2854 424.04 37.4754C417.47 44.8354 415.95 58.7253 421.14 70.0953C422.83 73.7953 425.37 72.6054 427.08 69.7154Z" fill="#9F3081"/>
<path d="M421.29 162.885C414.02 175.215 407.42 178.755 406.46 186.215C404.63 200.215 417.9 202.315 424.32 195.125C430.9 187.765 432.42 173.865 427.23 162.505C425.54 158.805 422.99 159.995 421.29 162.885Z" fill="#9F3081"/>
<path d="M532.13 99.9353C534.076 94.0359 534.744 87.7901 534.091 81.6125C533.437 75.4349 531.477 69.4671 528.34 64.1053C525.111 58.2547 520.328 53.4098 514.52 50.1053C501.33 43.1053 487.4 42.6953 472.95 48.6853C474.86 37.1053 472.5 24.2653 463.95 14.6053C459.814 9.98188 454.743 6.28951 449.073 3.77259C443.403 1.25567 437.263 -0.0284035 431.06 0.00534764C424.387 -0.109283 417.812 1.62097 412.06 5.00535C399.4 12.9353 392.06 24.7953 390.06 40.2853C381 32.8353 368.67 28.4553 356 31.0053C349.918 32.2726 344.175 34.818 339.151 38.4729C334.127 42.1278 329.938 46.8087 326.86 52.2053C323.411 57.9385 321.618 64.5151 321.68 71.2053C322.21 86.1253 328.82 98.3954 341.22 107.915C330.22 112.045 320.31 120.515 316.22 132.715C314.284 138.607 313.62 144.843 314.271 151.011C314.923 157.179 316.875 163.138 320 168.495C323.232 174.344 328.014 179.188 333.82 182.495C347.01 189.495 360.95 189.905 375.39 183.915C373.49 195.495 375.84 208.335 384.39 217.995C388.525 222.63 393.599 226.333 399.275 228.857C404.951 231.381 411.098 232.669 417.31 232.635C423.983 232.754 430.56 231.024 436.31 227.635C448.96 219.715 456.31 207.855 458.31 192.355C467.39 199.785 479.69 204.175 492.31 201.625C498.393 200.365 504.138 197.823 509.163 194.169C514.187 190.516 518.376 185.834 521.45 180.435C524.904 174.704 526.697 168.126 526.63 161.435C526.1 146.515 519.49 134.235 507.09 124.725C518.09 120.585 528.01 112.125 532.09 99.9154M423.62 107.755C425.033 107.668 426.445 107.935 427.729 108.533C429.013 109.13 430.127 110.038 430.97 111.175C431.975 112.5 432.564 114.095 432.66 115.755C432.785 117.851 432.13 119.919 430.82 121.56C429.511 123.202 427.641 124.301 425.57 124.645L425.16 124.715C424.99 124.715 424.84 124.785 424.67 124.795C422.486 124.947 420.327 124.25 418.643 122.851C416.959 121.452 415.879 119.457 415.628 117.282C415.377 115.107 415.974 112.918 417.295 111.172C418.615 109.426 420.559 108.256 422.72 107.905L423.12 107.835C423.29 107.835 423.45 107.765 423.62 107.755ZM417.14 25.2553C428.2 16.1453 444.08 18.3653 451.14 29.6053C457.47 39.6053 458.22 52.3354 443.75 67.4454C436.93 74.5654 428.75 87.3153 425.62 93.0353C422.81 98.2453 419.44 97.2354 416.21 92.1654C411.53 84.8154 406.72 71.2953 405.95 58.7653C405.03 43.6253 410.64 30.5753 417.11 25.2553M362.62 49.5553C374.48 49.1053 385.85 54.7954 391.7 74.8754C394.46 84.3454 401.4 97.8254 404.81 103.375C407.91 108.375 405.35 110.825 399.35 111.085C390.65 111.455 376.53 108.865 365.29 103.265C351.72 96.4954 343.22 85.1053 341.84 76.8553C339.48 62.7253 349.35 50.0753 362.62 49.5553ZM348.85 167.885C335.43 162.885 329.41 147.985 335.6 136.235C341.13 125.735 351.75 118.735 372.07 123.705C381.65 126.055 396.8 126.785 403.31 126.605C409.22 126.435 410.03 129.865 407.25 135.195C403.25 142.915 393.92 153.845 383.45 160.775C370.8 169.155 356.69 170.775 348.85 167.885ZM431.19 207.325C420.13 216.445 404.24 214.215 397.19 202.975C390.86 192.975 390.11 180.245 404.58 165.135C411.4 158.015 419.58 145.255 422.7 139.535C425.52 134.325 428.89 135.345 432.11 140.405C436.79 147.755 441.6 161.285 442.37 173.805C443.3 188.955 437.68 202.005 431.22 207.325M485.74 183.005C473.88 183.465 462.51 177.775 456.66 157.685C453.9 148.225 446.96 134.685 443.55 129.195C440.45 124.195 443.01 121.745 449.01 121.475C457.71 121.095 471.84 123.695 483.07 129.295C496.65 136.065 505.14 147.455 506.52 155.715C508.89 169.845 499.02 182.485 485.74 183.005ZM512.74 96.3253C507.22 106.825 496.6 113.835 476.27 108.855C466.7 106.505 451.55 105.775 445.04 105.955C439.13 106.125 438.32 102.695 441.09 97.3653C445.09 89.6453 454.43 78.7253 464.89 71.7953C477.55 63.4153 491.65 61.7953 499.49 64.6853C512.91 69.6853 518.93 84.5753 512.74 96.3253Z" fill="#9F3081"/>
<path d="M492.38 76.7653C482.71 74.7653 469.92 80.3853 462.68 90.5553C460.32 93.8753 462.62 95.4853 465.98 95.5553C480.29 95.6953 486.65 99.6353 493.6 96.7353C506.68 91.2953 501.82 78.7353 492.38 76.8153" fill="#9F3081"/>
<path d="M382.38 137.085C368.08 136.955 361.71 133.015 354.77 135.905C341.69 141.345 346.55 153.905 355.99 155.835C365.65 157.835 378.44 152.215 385.68 142.035C388.05 138.715 385.74 137.115 382.38 137.085Z" fill="#9F3081"/>
<path d="M465.72 136.765C461.67 136.385 461.43 139.175 463.08 142.095C470.08 154.555 469.89 162.035 475.87 166.605C487.13 175.215 495.53 164.745 492.52 155.605C489.43 146.225 478.15 137.965 465.72 136.785" fill="#9F3081"/>
<path d="M382.64 95.8253C386.69 96.2153 386.94 93.4153 385.28 90.4853C378.28 78.0453 378.47 70.5653 372.49 65.9853C361.23 57.3853 352.83 67.8553 355.84 76.9853C358.93 86.3653 370.2 94.6253 382.64 95.8053" fill="#9F3081"/>
<path d="M43.18 43.9354C17.74 43.9354 0 66.1954 0 90.6154C0 115.715 17.24 137.005 43.18 137.005C69.12 137.005 86.35 115.755 86.35 90.6554C86.35 66.2354 68.61 43.9754 43.18 43.9754M43.18 114.925C30.12 114.925 24.1 102.205 24.1 90.6554C24.1 79.1054 30 66.0054 43.18 66.0054C56.36 66.0054 62.25 79.0054 62.25 90.5954C62.25 102.185 56.25 114.865 43.18 114.865" fill="#9F3081"/>
<path d="M176.55 127.935V58.3254C176.55 50.3254 171.55 44.9354 164.5 44.9354C157.81 44.9354 153.96 48.6154 152.45 54.9354C147.93 47.5754 138.56 43.9354 130.36 43.9354C106.1 43.9354 90.7 66.5254 90.7 90.7854C90.7 114.715 102.59 136.965 127.85 136.965C138.9 136.965 147.1 132.965 152.12 125.595H152.45V131.285C152.45 143.495 143.75 150.355 132.04 150.355C118.15 150.355 109.61 142.825 101.92 142.825C97.23 142.825 92.21 148.825 92.21 153.365C92.21 166.585 120.32 171.445 130.21 171.445C157.65 171.445 176.56 156.885 176.56 127.935M133.56 114.885C121.01 114.885 114.82 103.165 114.82 90.2754C114.8 79.0654 121 66.0054 133.54 66.0054C146.77 66.0054 152.45 79.3854 152.45 91.0954C152.45 102.805 146.45 114.865 133.54 114.865" fill="#9F3081"/>
<path d="M270.6 58.3254C270.6 50.3254 265.6 44.9354 258.55 44.9354C251.86 44.9354 248.01 48.6154 246.5 54.9354C241.98 47.5754 232.61 43.9354 224.41 43.9354C200.15 43.9354 184.75 66.5254 184.75 90.7854C184.75 114.715 196.63 136.965 221.9 136.965C232.9 136.965 241.14 132.965 246.17 125.595H246.5V131.285C246.5 143.495 237.8 150.355 226.08 150.355C212.19 150.355 203.66 142.825 195.96 142.825C191.27 142.825 186.26 148.825 186.26 153.365C186.26 166.585 214.37 171.445 224.26 171.445C251.7 171.445 270.61 156.885 270.61 127.935L270.6 58.3254ZM227.6 114.885C215.05 114.885 208.86 103.165 208.86 90.2754C208.85 79.0654 215 66.0054 227.59 66.0054C240.81 66.0054 246.5 79.3854 246.5 91.0954C246.5 102.805 240.5 114.865 227.59 114.865" fill="#9F3081"/>
<path d="M293.53 35.8954C297.165 35.8374 300.629 34.3446 303.167 31.7426C305.706 29.1405 307.112 25.6403 307.08 22.0054C307.08 15.0054 300.72 8.77536 293.53 8.77536C286.34 8.77536 280 15.1454 280 22.0054C280 29.3654 286.36 35.8854 293.56 35.8854" fill="#9F3081"/>
<path d="M305.58 122.575V58.3254C305.58 50.3254 300.58 44.9354 293.53 44.9354C286.48 44.9354 281.53 50.2954 281.53 58.3254V122.575C281.53 130.575 286.53 135.965 293.53 135.965C300.53 135.965 305.58 130.605 305.58 122.575Z" fill="#9F3081"/>
<path d="M105.31 195.645C105.31 193.855 106.97 192.875 108.81 192.875C111.36 192.875 112.73 194.155 114.48 194.155C114.876 194.137 115.264 194.041 115.623 193.872C115.981 193.704 116.303 193.465 116.569 193.172C116.835 192.878 117.04 192.534 117.172 192.161C117.304 191.787 117.361 191.391 117.34 190.995C117.34 187.625 111.34 186.735 108.97 186.735C103.3 186.735 98.3999 190.445 98.3999 196.415C98.3999 206.315 112.64 203.285 112.64 208.315C112.64 210.405 111.11 211.985 108.29 211.985C105.47 211.985 103.13 210.325 101.13 210.325C100.742 210.323 100.358 210.401 100 210.553C99.6433 210.705 99.321 210.928 99.0532 211.209C98.7854 211.49 98.5778 211.822 98.4431 212.186C98.3084 212.55 98.2495 212.938 98.2699 213.325C98.2699 217.325 105.35 218.095 108.63 218.095C114.52 218.095 119.55 214.305 119.55 208.205C119.55 197.205 105.31 200.005 105.31 195.615" fill="#9F3081"/>
<path d="M139 186.735C130.3 186.735 124.33 193.555 124.33 202.435C124.33 211.315 130.33 218.125 139 218.125C147.67 218.125 153.68 211.265 153.68 202.435C153.68 193.775 147.58 186.735 139 186.735ZM139 212.245C133.58 212.245 131 207.635 131 202.435C131 197.235 133.69 192.625 139 192.625C144.31 192.625 147 197.265 147 202.435C147 207.605 144.4 212.245 139 212.245Z" fill="#9F3081"/>
<path d="M173.59 204.945C177.94 204.265 181.48 201.575 181.48 196.885C181.48 190.185 177.42 187.245 170.85 187.245H163.35C162.903 187.199 162.451 187.253 162.028 187.405C161.605 187.557 161.222 187.801 160.906 188.121C160.59 188.44 160.35 188.827 160.204 189.252C160.057 189.677 160.008 190.129 160.06 190.575V214.575C160.06 215.424 160.397 216.238 160.997 216.838C161.597 217.438 162.411 217.775 163.26 217.775C164.109 217.775 164.923 217.438 165.523 216.838C166.123 216.238 166.46 215.424 166.46 214.575V205.315H166.55L176 216.765C176.434 217.266 177.012 217.621 177.656 217.783C178.299 217.944 178.976 217.903 179.595 217.666C180.214 217.429 180.746 217.007 181.117 216.458C181.488 215.909 181.681 215.258 181.67 214.595C181.638 213.883 181.334 213.21 180.82 212.715L173.59 204.945ZM166.46 200.685V193.135H170.85C173.2 193.135 174.85 194.455 174.85 196.885C174.877 197.409 174.791 197.932 174.597 198.419C174.403 198.906 174.105 199.345 173.725 199.706C173.345 200.068 172.891 200.342 172.395 200.511C171.899 200.68 171.372 200.739 170.85 200.685H166.46Z" fill="#9F3081"/>
<path d="M207.61 187.005C206.973 187.024 206.357 187.235 205.841 187.609C205.325 187.984 204.935 188.505 204.72 189.105L198.1 206.845L191.49 189.105C191.238 188.406 190.749 187.816 190.108 187.438C189.467 187.061 188.715 186.919 187.98 187.038C187.246 187.156 186.576 187.528 186.087 188.088C185.597 188.648 185.319 189.362 185.3 190.105C185.293 190.644 185.395 191.178 185.6 191.675L194.94 215.435C195.5 216.805 196.22 217.915 198.1 217.915C199.98 217.915 200.7 216.805 201.26 215.435L210.6 191.675C210.805 191.178 210.907 190.644 210.9 190.105C210.871 189.261 210.509 188.462 209.892 187.885C209.275 187.308 208.454 186.998 207.61 187.025" fill="#9F3081"/>
<path d="M230.31 211.735H222.41V205.245H229.41C229.811 205.27 230.213 205.212 230.59 205.075C230.968 204.939 231.314 204.726 231.606 204.451C231.899 204.175 232.131 203.843 232.29 203.474C232.449 203.105 232.531 202.707 232.53 202.305C232.547 201.897 232.477 201.489 232.324 201.109C232.172 200.729 231.94 200.386 231.646 200.103C231.351 199.819 230.999 199.601 230.613 199.464C230.228 199.326 229.818 199.272 229.41 199.305H222.41V193.085H229.93C230.324 193.1 230.716 193.035 231.084 192.893C231.451 192.75 231.786 192.534 232.067 192.258C232.348 191.982 232.569 191.651 232.718 191.286C232.866 190.921 232.938 190.529 232.93 190.135C232.945 189.74 232.876 189.346 232.73 188.979C232.584 188.612 232.362 188.279 232.08 188.002C231.797 187.726 231.46 187.511 231.09 187.372C230.72 187.233 230.325 187.173 229.93 187.195H219.34C217.08 187.195 216.02 188.775 216.02 190.905V214.365C216.007 214.796 216.083 215.225 216.245 215.624C216.406 216.024 216.648 216.385 216.957 216.686C217.265 216.987 217.633 217.221 218.036 217.372C218.439 217.523 218.87 217.589 219.3 217.565H230.3C230.693 217.58 231.085 217.515 231.452 217.373C231.818 217.232 232.152 217.017 232.433 216.742C232.714 216.466 232.936 216.137 233.085 215.773C233.234 215.409 233.307 215.018 233.3 214.625C233.315 214.23 233.246 213.836 233.1 213.469C232.954 213.102 232.732 212.769 232.45 212.492C232.167 212.216 231.83 212.001 231.46 211.862C231.09 211.723 230.695 211.663 230.3 211.685" fill="#9F3081"/>
<path d="M256 187.245H240.3C239.915 187.24 239.532 187.312 239.176 187.459C238.819 187.605 238.496 187.822 238.226 188.097C237.956 188.372 237.744 188.699 237.604 189.058C237.464 189.417 237.398 189.8 237.41 190.185C237.383 190.575 237.438 190.965 237.573 191.332C237.708 191.698 237.919 192.031 238.192 192.31C238.465 192.589 238.794 192.807 239.157 192.949C239.521 193.091 239.91 193.155 240.3 193.135H245V214.545C244.976 214.98 245.04 215.415 245.19 215.824C245.339 216.233 245.571 216.606 245.87 216.923C246.169 217.239 246.529 217.491 246.929 217.663C247.329 217.835 247.76 217.924 248.195 217.924C248.63 217.924 249.061 217.835 249.461 217.663C249.861 217.491 250.221 217.239 250.52 216.923C250.819 216.606 251.051 216.233 251.2 215.824C251.35 215.415 251.414 214.98 251.39 214.545V193.135H256C256.391 193.156 256.782 193.094 257.147 192.952C257.512 192.811 257.843 192.593 258.118 192.314C258.393 192.036 258.606 191.702 258.742 191.335C258.879 190.968 258.936 190.576 258.91 190.185C258.921 189.799 258.853 189.414 258.711 189.055C258.569 188.695 258.356 188.368 258.084 188.093C257.812 187.818 257.487 187.601 257.129 187.456C256.771 187.31 256.387 187.238 256 187.245Z" fill="#9F3081"/>
<path d="M278.15 211.735H270.26V205.245H277.26C277.66 205.27 278.062 205.212 278.439 205.075C278.816 204.939 279.161 204.726 279.453 204.45C279.744 204.174 279.976 203.842 280.134 203.473C280.292 203.104 280.372 202.707 280.37 202.305C280.387 201.897 280.317 201.491 280.165 201.112C280.013 200.733 279.783 200.39 279.489 200.107C279.195 199.823 278.844 199.605 278.46 199.467C278.076 199.329 277.667 199.274 277.26 199.305H270.26V193.085H277.77C278.163 193.099 278.555 193.032 278.922 192.89C279.289 192.747 279.623 192.531 279.904 192.255C280.184 191.979 280.406 191.649 280.555 191.284C280.704 190.92 280.777 190.529 280.77 190.135C280.785 189.74 280.716 189.346 280.57 188.979C280.424 188.612 280.202 188.279 279.92 188.002C279.637 187.726 279.3 187.511 278.93 187.372C278.56 187.233 278.165 187.173 277.77 187.195H267.19C264.92 187.195 263.86 188.775 263.86 190.905V214.365C263.847 214.796 263.923 215.225 264.085 215.624C264.246 216.024 264.488 216.385 264.797 216.686C265.105 216.987 265.473 217.221 265.876 217.372C266.279 217.523 266.71 217.589 267.14 217.565H278.14C278.533 217.582 278.926 217.518 279.293 217.376C279.661 217.235 279.995 217.02 280.276 216.745C280.558 216.469 280.779 216.139 280.928 215.775C281.076 215.41 281.149 215.019 281.14 214.625C281.155 214.23 281.086 213.836 280.94 213.469C280.794 213.102 280.572 212.769 280.29 212.492C280.007 212.216 279.67 212.001 279.3 211.862C278.93 211.723 278.535 211.663 278.14 211.685" fill="#9F3081"/>
<path d="M293.11 195.645C293.11 193.855 294.78 192.875 296.61 192.875C299.17 192.875 300.54 194.155 302.29 194.155C302.685 194.136 303.072 194.039 303.43 193.87C303.787 193.7 304.107 193.462 304.372 193.168C304.637 192.874 304.841 192.531 304.973 192.158C305.105 191.785 305.162 191.39 305.14 190.995C305.14 187.625 299.14 186.735 296.78 186.735C291.11 186.735 286.21 190.445 286.21 196.415C286.21 206.315 300.45 203.285 300.45 208.315C300.45 210.405 298.92 211.985 296.1 211.985C293.28 211.985 290.94 210.325 288.94 210.325C288.552 210.323 288.168 210.401 287.81 210.553C287.453 210.705 287.131 210.928 286.863 211.209C286.595 211.49 286.388 211.822 286.253 212.186C286.119 212.55 286.06 212.938 286.08 213.325C286.08 217.325 293.16 218.095 296.44 218.095C302.33 218.095 307.36 214.305 307.36 208.205C307.36 197.205 293.11 200.005 293.11 195.615" fill="#9F3081"/>
</svg>
