<?xml version="1.0" encoding="UTF-8"?>
<!DOCTYPE svg PUBLIC "-//W3C//DTD SVG 1.1//EN" "http://www.w3.org/Graphics/SVG/1.1/DTD/svg11.dtd">
<!-- Creator: CorelDRAW -->
<svg xmlns="http://www.w3.org/2000/svg" xml:space="preserve" width="63.1714mm" height="12.9894mm" version="1.1" style="shape-rendering:geometricPrecision; text-rendering:geometricPrecision; image-rendering:optimizeQuality; fill-rule:evenodd; clip-rule:evenodd"
viewBox="0 0 6317.14 1298.94"
 xmlns:xlink="http://www.w3.org/1999/xlink"
 xmlns:xodm="http://www.corel.com/coreldraw/odm/2003">
 <defs>
  <style type="text/css">
   <![CDATA[
    .fil1 {fill:#4CBD70}
    .fil0 {fill:white;fill-rule:nonzero}
   ]]>
  </style>
 </defs>
 <g id="Camada_x0020_1">
  <metadata id="CorelCorpID_0Corel-Layer"/>
  <g id="_2739805117440">
   <path class="fil0" d="M121.28 1203.18c-25.28,0 -46.19,-1.32 -62.58,-3.95 -16.46,-2.63 -28.67,-8.38 -36.68,-17.27 -8.01,-8.95 -12.01,-22.84 -12.01,-41.62 0,-19.21 3.75,-33.29 11.26,-42.3 7.51,-8.95 19.46,-14.84 35.74,-17.47 16.33,-2.69 37.73,-4.06 64.27,-4.06 21.53,0 39.55,0.5 54.13,1.44 14.52,1 27.54,2.69 39.06,5.19 -0.25,-16.27 -1.38,-29.1 -3.32,-38.43 -1.94,-9.38 -5.63,-16.33 -11.02,-20.84 -5.38,-4.5 -13.2,-7.38 -23.53,-8.69 -10.32,-1.26 -24.09,-1.95 -41.18,-1.95 -19.59,0 -34.86,0.44 -45.93,1.32 -11.08,0.81 -19.09,2.38 -24.1,4.57 -5,2.19 -8.2,5.38 -9.45,9.51 -1.31,4.19 -1.94,9.58 -1.94,16.15l-35.17 0c0,-13.21 1.75,-23.85 5.38,-31.92 3.63,-8.07 9.77,-14.14 18.4,-18.34 8.7,-4.13 20.59,-6.94 35.67,-8.38 15.09,-1.51 34.18,-2.26 57.14,-2.26 24.66,0 44.56,1.63 59.65,4.82 15.14,3.13 26.59,8.89 34.48,17.15 7.88,8.2 13.2,19.78 15.96,34.55 2.75,14.77 4.13,33.85 4.13,57.2l0 101.57 -35.17 0 0 -14.46c-4.2,4.38 -9.95,7.89 -17.28,10.58 -7.32,2.69 -17.08,4.69 -29.22,6.01 -12.14,1.25 -27.73,1.88 -46.69,1.88zm0 -28.61c20.9,0 37.61,-0.25 50.07,-0.68 12.45,-0.5 21.78,-1.88 27.97,-4.07 6.13,-2.19 10.2,-5.76 12.2,-10.64 1.94,-4.88 2.95,-11.7 2.95,-20.53l0 -32.42 -93.19 -1.12c-16.46,-0.25 -29.79,0 -39.87,0.62 -10.07,0.69 -17.77,2.13 -23.03,4.45 -5.25,2.25 -8.76,5.75 -10.51,10.64 -1.75,4.81 -2.69,11.32 -2.69,19.52 0,7.95 0.94,14.21 2.69,18.84 1.75,4.69 5.26,8.07 10.51,10.26 5.26,2.26 12.96,3.63 23.03,4.26 10.08,0.56 23.41,0.87 39.87,0.87z"/>
   <path id="_1" class="fil0" d="M417.13 1203.18c-27.6,0 -49.38,-3.01 -65.28,-9.08 -15.83,-6.01 -27.16,-16.15 -33.92,-30.41 -6.69,-14.21 -10.07,-33.74 -10.07,-58.39l0 -117.35 35.42 0 0 117.35c0,13.95 1.13,25.4 3.38,34.35 2.25,9.02 6.26,15.96 12.02,20.91 5.75,4.94 13.83,8.44 24.28,10.38 10.45,1.95 23.9,2.95 40.43,2.95 24.47,0 43.62,-2.07 57.57,-6.07 13.96,-4.01 23.78,-10.39 29.61,-18.97 5.82,-8.63 8.69,-19.84 8.69,-33.67l0 -127.23 35.24 0 0 211.22 -35.24 0 0 -28.04c-5.13,7.07 -11.57,13.02 -19.4,17.78 -7.82,4.75 -18.27,8.32 -31.35,10.7 -13.08,2.38 -30.23,3.57 -51.38,3.57z"/>
   <path id="_2" class="fil0" d="M712.66 1199.17c-21.52,0 -38.8,-2.19 -51.75,-6.51 -12.96,-4.32 -22.34,-12.01 -28.1,-23.09 -5.82,-11.08 -8.7,-26.6 -8.7,-46.69l0 -192.69 35.17 0 0 57.76 129.99 0 0 28.98 -129.99 0 0 105.95c0,13.71 1.25,23.91 3.76,30.6 2.5,6.76 7.57,11.14 15.2,13.21 7.64,2.13 19.09,3.13 34.42,3.13 13.52,0 24.22,-0.44 31.98,-1.25 7.76,-0.88 13.46,-3.19 17.15,-6.89 3.63,-3.75 5.95,-9.89 6.95,-18.46 1,-8.51 1.44,-20.59 1.44,-36.11l31.16 0c0,20.28 -1.25,36.55 -3.75,48.81 -2.5,12.21 -6.95,21.41 -13.33,27.67 -6.45,6.26 -15.4,10.39 -26.97,12.45 -11.58,2.07 -26.41,3.13 -44.63,3.13z"/>
   <path id="_3" class="fil0" d="M977.15 1203.18c-23.59,0 -43.68,-1.19 -60.14,-3.57 -16.52,-2.38 -29.85,-7.26 -39.99,-14.65 -10.14,-7.38 -17.52,-18.52 -22.15,-33.29 -4.7,-14.77 -7.01,-34.55 -7.01,-59.2 0,-23.97 2.31,-43.19 7.01,-57.58 4.63,-14.46 12.01,-25.28 22.15,-32.67 10.14,-7.32 23.47,-12.2 39.99,-14.64 16.46,-2.44 36.55,-3.7 60.14,-3.7 23.72,0 43.75,1.26 60.21,3.7 16.46,2.44 29.73,7.32 39.86,14.64 10.14,7.39 17.59,18.21 22.22,32.67 4.63,14.39 6.95,33.61 6.95,57.58 0,24.65 -2.32,44.43 -6.95,59.2 -4.63,14.77 -12.08,25.91 -22.22,33.29 -10.13,7.39 -23.4,12.27 -39.86,14.65 -16.46,2.38 -36.49,3.57 -60.21,3.57zm94.07 -110.71c0,-17.47 -0.94,-31.48 -2.7,-42 -1.75,-10.51 -5.63,-18.4 -11.64,-23.72 -6,-5.32 -15.33,-8.88 -27.97,-10.76 -12.64,-1.82 -29.92,-2.76 -51.76,-2.76 -21.78,0 -38.99,0.94 -51.69,2.76 -12.77,1.88 -22.09,5.44 -28.1,10.76 -5.95,5.32 -9.83,13.21 -11.64,23.72 -1.75,10.52 -2.63,24.53 -2.63,42 0,18.08 0.88,32.54 2.63,43.43 1.81,10.89 5.69,19.02 11.64,24.47 6.01,5.44 15.33,9.07 28.1,10.83 12.7,1.75 29.91,2.69 51.69,2.69 21.84,0 39.12,-0.94 51.76,-2.69 12.64,-1.76 21.97,-5.39 27.97,-10.83 6.01,-5.45 9.89,-13.58 11.64,-24.47 1.76,-10.89 2.7,-25.35 2.7,-43.43z"/>
   <path id="_4" class="fil0" d="M1160.97 1199.17l0 -211.22 35.17 0 0 26.22c5.26,-7.07 11.58,-13.01 18.9,-17.77 7.32,-4.76 16.71,-8.39 28.16,-10.76 11.39,-2.38 26.04,-3.57 43.88,-3.57 22.15,0 40.17,3 54.13,9.01 13.89,5.95 24.16,16.27 30.79,30.98 6.01,-9.33 13.21,-16.9 21.65,-22.84 8.39,-5.95 19.03,-10.27 31.8,-13.02 12.76,-2.75 28.47,-4.13 47.18,-4.13 22.28,0 40.37,3.07 54.26,9.07 13.96,6.07 24.22,16.4 30.73,30.92 6.57,14.52 9.83,34.48 9.83,59.77l0 117.34 -35.24 0 0 -117.34c0,-19.34 -2,-34.05 -6,-44.12 -4.07,-10.08 -10.77,-16.97 -20.09,-20.72 -9.39,-3.69 -21.97,-5.57 -37.87,-5.57 -31.16,0 -53.38,4.57 -66.65,13.77 -13.27,9.14 -19.9,24.09 -19.9,44.87l0 -0.12c0.13,3.75 0.19,7.76 0.19,11.89l0 117.34 -35.24 0 0 -117.34c0,-19.34 -2,-34.05 -6,-44.12 -4.07,-10.08 -10.77,-16.97 -20.09,-20.72 -9.33,-3.69 -21.97,-5.57 -37.87,-5.57 -31.16,0 -53.38,4.57 -66.65,13.77 -13.26,9.14 -19.9,24.09 -19.9,44.87l0 129.11 -35.17 0z"/>
   <path id="_5" class="fil0" d="M1738.06 1203.18c-25.28,0 -46.19,-1.32 -62.58,-3.95 -16.46,-2.63 -28.67,-8.38 -36.68,-17.27 -8.01,-8.95 -12.01,-22.84 -12.01,-41.62 0,-19.21 3.75,-33.29 11.26,-42.3 7.51,-8.95 19.46,-14.84 35.74,-17.47 16.33,-2.69 37.73,-4.06 64.27,-4.06 21.53,0 39.55,0.5 54.13,1.44 14.52,1 27.54,2.69 39.06,5.19 -0.25,-16.27 -1.38,-29.1 -3.32,-38.43 -1.94,-9.38 -5.63,-16.33 -11.02,-20.84 -5.38,-4.5 -13.2,-7.38 -23.53,-8.69 -10.32,-1.26 -24.09,-1.95 -41.18,-1.95 -19.59,0 -34.86,0.44 -45.93,1.32 -11.08,0.81 -19.09,2.38 -24.1,4.57 -5,2.19 -8.2,5.38 -9.45,9.51 -1.31,4.19 -1.94,9.58 -1.94,16.15l-35.17 0c0,-13.21 1.75,-23.85 5.38,-31.92 3.63,-8.07 9.77,-14.14 18.4,-18.34 8.7,-4.13 20.59,-6.94 35.67,-8.38 15.09,-1.51 34.18,-2.26 57.14,-2.26 24.66,0 44.56,1.63 59.65,4.82 15.14,3.13 26.59,8.89 34.48,17.15 7.88,8.2 13.2,19.78 15.96,34.55 2.75,14.77 4.13,33.85 4.13,57.2l0 101.57 -35.17 0 0 -14.46c-4.2,4.38 -9.95,7.89 -17.28,10.58 -7.32,2.69 -17.08,4.69 -29.22,6.01 -12.14,1.25 -27.73,1.88 -46.69,1.88zm0 -28.61c20.9,0 37.61,-0.25 50.07,-0.68 12.45,-0.5 21.78,-1.88 27.97,-4.07 6.13,-2.19 10.2,-5.76 12.2,-10.64 1.94,-4.88 2.95,-11.7 2.95,-20.53l0 -32.42 -93.19 -1.12c-16.46,-0.25 -29.79,0 -39.87,0.62 -10.07,0.69 -17.77,2.13 -23.03,4.45 -5.25,2.25 -8.76,5.75 -10.51,10.64 -1.75,4.81 -2.69,11.32 -2.69,19.52 0,7.95 0.94,14.21 2.69,18.84 1.75,4.69 5.26,8.07 10.51,10.26 5.26,2.26 12.96,3.63 23.03,4.26 10.08,0.56 23.41,0.87 39.87,0.87z"/>
   <path id="_6" class="fil0" d="M2048.8 1203.18c-23.59,0 -43.68,-1.19 -60.14,-3.57 -16.52,-2.38 -29.85,-7.26 -39.99,-14.65 -10.14,-7.38 -17.52,-18.52 -22.15,-33.29 -4.7,-14.77 -7.01,-34.55 -7.01,-59.2 0,-23.97 2.31,-43.19 7.01,-57.58 4.63,-14.46 12.01,-25.28 22.15,-32.67 10.14,-7.32 23.47,-12.2 39.99,-14.64 16.46,-2.44 36.55,-3.7 60.14,-3.7 28.23,0 51.45,1.63 69.72,4.88 18.28,3.26 31.86,9.89 40.62,19.91 8.82,10.01 13.2,25.28 13.2,45.81l-33.73 0c0,-11.83 -2.44,-20.72 -7.32,-26.54 -4.88,-5.88 -13.83,-9.82 -26.79,-11.76 -12.95,-1.94 -31.54,-2.95 -55.7,-2.95 -21.78,0 -38.99,0.94 -51.69,2.76 -12.77,1.88 -22.09,5.44 -28.1,10.76 -5.95,5.32 -9.83,13.21 -11.64,23.72 -1.75,10.52 -2.63,24.53 -2.63,42 0,18.08 0.88,32.54 2.63,43.43 1.81,10.89 5.69,19.02 11.64,24.47 6.01,5.44 15.33,9.07 28.1,10.83 12.7,1.75 29.91,2.69 51.69,2.69 18.47,0 33.55,-0.57 45.25,-1.57 11.77,-1.06 20.84,-3.13 27.35,-6.26 6.45,-3.13 10.95,-7.63 13.46,-13.58 2.5,-5.88 3.75,-13.83 3.75,-23.72l33.73 0c0,16.4 -2.44,29.54 -7.32,39.43 -4.88,9.89 -12.33,17.34 -22.34,22.34 -10.02,5.01 -22.84,8.39 -38.43,10.08 -15.58,1.75 -34.11,2.57 -55.45,2.57zm-17.14 95.75l0 -29.35c5.63,0 11.14,-0.32 16.52,-0.94 5.38,-0.57 9.82,-2.01 13.39,-4.2 3.5,-2.19 5.32,-5.63 5.32,-10.26 0,-5.76 -3.25,-9.51 -9.76,-11.26 -6.45,-1.82 -14.96,-2.7 -25.47,-2.7l0 -52.82 23.46 0 0 35.24c15.65,0 27.42,2.63 35.24,7.95 7.82,5.32 11.7,14.27 11.7,26.91 0,10.64 -2.94,18.96 -8.89,25.03 -5.94,6.01 -14.2,10.26 -24.78,12.71 -10.51,2.44 -22.78,3.69 -36.73,3.69z"/>
   <path id="_7" class="fil0" d="M2349.65 1203.18c-23.59,0 -43.68,-1.19 -60.14,-3.57 -16.52,-2.38 -29.85,-7.26 -39.99,-14.65 -10.14,-7.38 -17.52,-18.52 -22.15,-33.29 -4.7,-14.77 -7.01,-34.55 -7.01,-59.2 0,-23.97 2.31,-43.19 7.01,-57.58 4.63,-14.46 12.01,-25.28 22.15,-32.67 10.14,-7.32 23.47,-12.2 39.99,-14.64 16.46,-2.44 36.55,-3.7 60.14,-3.7 23.72,0 43.75,1.26 60.21,3.7 16.46,2.44 29.73,7.32 39.86,14.64 10.14,7.39 17.59,18.21 22.22,32.67 4.63,14.39 6.95,33.61 6.95,57.58 0,24.65 -2.32,44.43 -6.95,59.2 -4.63,14.77 -12.08,25.91 -22.22,33.29 -10.13,7.39 -23.4,12.27 -39.86,14.65 -16.46,2.38 -36.49,3.57 -60.21,3.57zm94.07 -110.71c0,-17.47 -0.94,-31.48 -2.7,-42 -1.75,-10.51 -5.63,-18.4 -11.64,-23.72 -6,-5.32 -15.33,-8.88 -27.97,-10.76 -12.64,-1.82 -29.92,-2.76 -51.76,-2.76 -21.78,0 -38.99,0.94 -51.69,2.76 -12.77,1.88 -22.09,5.44 -28.1,10.76 -5.95,5.32 -9.83,13.21 -11.64,23.72 -1.75,10.52 -2.63,24.53 -2.63,42 0,18.08 0.88,32.54 2.63,43.43 1.81,10.89 5.69,19.02 11.64,24.47 6.01,5.44 15.33,9.07 28.1,10.83 12.7,1.75 29.91,2.69 51.69,2.69 21.84,0 39.12,-0.94 51.76,-2.69 12.64,-1.76 21.97,-5.39 27.97,-10.83 6.01,-5.45 9.89,-13.58 11.64,-24.47 1.76,-10.89 2.7,-25.35 2.7,-43.43zm-176.18 -139.38c0,-15.14 4.51,-26.78 13.46,-34.92 9.01,-8.13 20.15,-12.2 33.48,-12.2 12.71,0 26.1,3 40.18,9.01 4.01,1.69 8.39,3.63 13.2,5.69 4.76,2.07 9.58,3.13 14.46,3.13 5.88,0 9.7,-1.19 11.58,-3.44 1.81,-2.25 2.75,-6.95 2.75,-14.21l35.17 0c0,16.28 -5.63,28.61 -16.89,37.05 -8.76,6.64 -18.78,9.89 -30.04,9.89 -12.83,0 -26.22,-2.94 -40.18,-8.76 -4.01,-1.75 -8.39,-3.63 -13.21,-5.69 -4.75,-2.07 -9.57,-3.13 -14.45,-3.13 -6.26,0 -10.2,1.12 -11.83,3.38 -1.63,2.25 -2.44,7.01 -2.44,14.2l-35.24 0z"/>
   <path id="_8" class="fil0" d="M2774.54 1136.46c0,15.77 -2.31,28.16 -7.01,37.24 -4.75,9.01 -11.89,15.64 -21.59,19.77 -9.64,4.2 -21.97,6.83 -36.92,8.02 -14.96,1.12 -32.8,1.69 -53.45,1.69 -23.59,0 -43.62,-1.19 -60.08,-3.57 -16.4,-2.38 -29.66,-7.26 -39.74,-14.65 -10.08,-7.38 -17.46,-18.52 -22.03,-33.29 -4.57,-14.77 -6.88,-34.55 -6.88,-59.2 0,-23.97 2.25,-43.19 6.69,-57.58 4.45,-14.46 11.71,-25.28 21.72,-32.67 10.01,-7.32 23.22,-12.2 39.55,-14.64 16.27,-2.44 36.24,-3.7 59.83,-3.7 27.04,0 49.38,1.94 67.15,5.7 17.71,3.82 30.92,11.01 39.68,21.65 8.7,10.64 13.08,26.22 13.08,46.75l0 45.31 -212.28 0c0.12,15.65 1.19,28.16 3.25,37.55 2.13,9.45 6.26,16.52 12.52,21.28 6.19,4.76 15.52,7.95 27.91,9.45 12.46,1.5 28.98,2.32 49.63,2.32 18.59,0 33.61,-0.38 45,-1.13 11.45,-0.75 20.09,-2.38 26.03,-4.88 5.95,-2.5 9.95,-6.26 12.02,-11.27 2.06,-5 3.13,-11.7 3.13,-20.15l32.79 0zm-119.91 -123.23c-19.9,0 -35.92,0.76 -48.13,2.2 -12.14,1.5 -21.4,4.31 -27.78,8.57 -6.32,4.19 -10.64,10.45 -12.89,18.77 -2.26,8.33 -3.45,19.28 -3.57,32.8l178.55 0 0 -17.59c0,-8.82 -1,-16.08 -3.01,-21.9 -2,-5.82 -5.94,-10.39 -11.82,-13.77 -5.89,-3.32 -14.52,-5.7 -25.98,-7.07 -11.39,-1.32 -26.53,-2.01 -45.37,-2.01z"/>
   <path id="_9" class="fil0" d="M2952.17 1203.18c-25.66,0 -46.32,-0.82 -61.9,-2.57 -15.58,-1.69 -27.35,-4.88 -35.36,-9.51 -8.01,-4.63 -13.39,-11.27 -16.15,-19.78 -2.75,-8.57 -4.13,-19.71 -4.13,-33.42l33.74 0c0,7.7 0.56,13.96 1.69,18.65 1.06,4.69 4.19,8.32 9.32,10.83 5.13,2.5 13.46,4.19 25.03,5.13 11.58,0.88 27.79,1.38 48.69,1.38 22.1,0 39.31,-0.5 51.64,-1.38 12.26,-0.94 21.09,-2.63 26.47,-5.13 5.38,-2.51 8.63,-6.14 9.82,-10.95 1.13,-4.76 1.69,-11.02 1.69,-18.84 0,-9.58 -0.81,-16.71 -2.56,-21.47 -1.69,-4.75 -5.7,-8.01 -12.08,-9.64 -6.32,-1.62 -16.52,-2.56 -30.42,-2.62l-83.98 -0.94c-21.66,-0.25 -38.12,-2.07 -49.51,-5.51 -11.39,-3.44 -19.15,-9.45 -23.28,-18.09 -4.13,-8.57 -6.26,-20.84 -6.26,-36.73 0,-14.77 2.32,-26.23 6.89,-34.3 4.57,-8.07 11.76,-13.83 21.53,-17.21 9.82,-3.44 22.53,-5.51 38.17,-6.13 15.65,-0.69 34.55,-1.07 56.64,-1.07 26.03,0 46.75,0.82 62.08,2.44 15.34,1.57 26.85,4.57 34.49,8.95 7.63,4.38 12.64,10.83 15.02,19.15 2.37,8.39 3.56,19.28 3.56,32.74l-33.73 0c0,-7.95 -0.56,-14.21 -1.69,-18.78 -1.06,-4.57 -4,-7.95 -8.89,-10.08 -4.81,-2.12 -12.64,-3.5 -23.46,-4.13 -10.77,-0.62 -25.98,-0.94 -45.56,-0.94 -22.22,0 -39.49,0.26 -51.89,0.76 -12.33,0.5 -21.27,1.62 -26.72,3.5 -5.51,1.82 -8.89,4.69 -10.14,8.7 -1.19,3.94 -1.81,9.45 -1.81,16.4 0,7.07 0.37,12.7 1.19,16.77 0.81,4.13 2.94,7.2 6.32,9.26 3.44,2.07 9.01,3.44 16.77,4.13 7.76,0.69 18.65,1.07 32.54,1.19l72.47 0.75c21.72,0.25 38.24,2 49.57,5.38 11.33,3.38 19.03,9.52 23.09,18.53 4.13,9.01 6.14,21.97 6.14,38.99 0,15.27 -2.19,27.28 -6.7,36.11 -4.44,8.76 -11.58,15.27 -21.34,19.52 -9.76,4.2 -22.66,6.95 -38.61,8.14 -15.96,1.25 -35.43,1.82 -58.39,1.82z"/>
   <path class="fil0" d="M16.42 801.27l0 -125.6 555.56 0.96c28.34,0 50.08,-6.6 65.22,-19.8 15.13,-13.2 22.71,-34.62 22.71,-64.26 0,-29.62 -7.58,-51.04 -22.71,-64.25 -15.14,-13.2 -36.88,-19.81 -65.22,-19.81l-345.89 0c-71.5,0 -127.06,-17.23 -166.67,-51.68 -39.61,-34.46 -59.42,-85.19 -59.42,-152.18 0,-66.99 19.81,-117.71 59.42,-152.18 39.61,-34.45 95.17,-51.68 166.67,-51.68l542.99 0 0 125.6 -526.57 -0.96c-27.7,0 -49.28,6.27 -64.73,18.84 -15.46,12.55 -23.19,32.68 -23.19,60.38 0,27.7 7.73,47.83 23.19,60.39 15.45,12.56 37.03,18.84 64.73,18.84l345.89 0c71.51,0 127.06,17.55 166.67,52.66 39.62,35.1 59.42,87.12 59.42,156.03 0,68.28 -19.8,120.13 -59.42,155.56 -39.61,35.43 -95.16,53.14 -166.67,53.14l-571.98 0zm1159.43 -4.83l0 -246.38 -366.19 -444.44 191.31 0 252.17 313.04 251.22 -313.04 191.3 0 -364.26 443.47 0 247.35 -155.55 0zm587.45 0l0 -690.82 156.52 0 488.88 496.62 0 -496.62 154.59 0 0 690.82 -156.52 0 -488.89 -497.59 0 497.59 -154.58 0zm935.27 0l0 -688.9 154.58 0 0 281.18 229.95 0 227.06 -281.18 192.27 0 -284.05 343.97 284.05 344.93 -192.27 0 -228.03 -282.13 -228.98 0 0 282.13 -154.58 0zm881.16 0l0 -690.82 578.73 0c71.51,0 127.06,18.04 166.67,54.1 39.62,36.07 59.42,90.82 59.42,164.26 0,62.48 -14.49,111.43 -43.48,146.85 -28.98,35.44 -70.2,57.65 -123.66,66.67l159.42 258.94 -175.85 0 -147.82 -254.1 -318.85 0 0 254.1 -154.58 0zm560.38 -565.22l-405.8 0 0 184.54 405.8 0.97c28.34,0 50.08,-7.09 65.22,-21.26 15.13,-14.17 22.7,-38 22.7,-71.49 0,-34.15 -7.57,-58.13 -22.7,-71.99 -15.14,-13.84 -36.88,-20.77 -65.22,-20.77z"/>
   <path class="fil0" d="M4849.29 801.27c-8.34,0 -16.56,-0.14 -24.65,-0.41l0.06 -115.95 -0.02 -11.02c14.2,1.19 29.16,1.78 44.9,1.78l149.76 0c72.15,0 128.02,-12.88 167.64,-38.65 39.61,-25.77 64.57,-66.99 74.87,-123.67l-0.93 -125.6 0.93 0c-9.03,-49.09 -29.41,-86.55 -61.15,-112.41l95.89 -59.47c11.54,-7.06 21.87,-13.45 32.89,-20.59 63.13,58.77 94.69,143.87 94.69,255.26 0,115.94 -33.81,203.39 -101.45,262.32 -67.62,58.94 -163.61,88.41 -287.91,88.41l-185.52 0zm-289.38 -91.42c-65.37,-58.89 -98.06,-145.32 -98.06,-259.31 0,-115.29 33.82,-202.42 101.45,-261.35 67.64,-58.94 165.22,-88.4 292.76,-88.4l173.91 0c14.84,0 29.28,0.41 43.3,1.21l0.06 112.7c0,2.1 -0.03,4.71 -0.08,7.76l0 6.69c-16.84,-1.84 -34.81,-2.76 -53.91,-2.76l-152.66 0c-71.49,0 -127.21,12.88 -167.15,38.65 -39.93,25.76 -65.05,66.66 -75.36,122.71l0 125.6c9.38,51.61 31.06,90.39 64.99,116.37l-126.52 78.46 -2.73 1.67z"/>
   <path class="fil1" d="M4873.01 680.51l-0.06 124.75c0,1.65 0.03,3.7 0.06,6.09l0 63.73c-0.53,9.58 -1.51,17.03 -3.25,19.76 -11.38,17.88 -36.63,-4.77 -48.67,-12.13l-123.39 -76.53c-10.64,-6.51 -19.99,-12.31 -30.41,-19.17 -10.5,-6.9 -20.3,-12.11 -30.72,-18.85 -5.59,-3.61 -9.97,-6.14 -15.72,-9.87 -28.5,-18.49 8.27,-35.3 15.09,-39.71 10.66,-6.88 20.37,-13.06 31.37,-19.8l170.77 -105.92c6.69,-4.23 10,-8.31 18.88,-8.31 10.01,0 15.99,8.87 15.99,19.2l0.06 76.76z"/>
   <path class="fil1" d="M5024.96 95.98l0.06 124.74c0,1.65 -0.03,3.7 -0.06,6.09l0 63.73c0.53,9.58 1.51,17.04 3.25,19.76 11.39,17.88 36.63,-4.77 48.67,-12.13l123.39 -76.52c10.64,-6.52 19.99,-12.31 30.41,-19.17 10.5,-6.9 20.3,-12.12 30.73,-18.85 5.59,-3.61 9.96,-6.15 15.71,-9.87 28.5,-18.49 -8.27,-35.3 -15.09,-39.71 -10.66,-6.89 -20.37,-13.06 -31.37,-19.81l-170.77 -105.91c-6.69,-4.24 -10,-8.32 -18.88,-8.32 -10.01,0 -15.99,8.87 -15.99,19.2l-0.06 76.77z"/>
   <path class="fil0" d="M5519.06 801.27l0 -125.6 555.56 0.96c28.34,0 50.08,-6.6 65.22,-19.8 15.13,-13.2 22.71,-34.62 22.71,-64.26 0,-29.62 -7.58,-51.04 -22.71,-64.25 -15.14,-13.2 -36.88,-19.81 -65.22,-19.81l-345.89 0c-71.5,0 -127.06,-17.23 -166.67,-51.68 -39.61,-34.46 -59.42,-85.19 -59.42,-152.18 0,-66.99 19.81,-117.71 59.42,-152.18 39.61,-34.45 95.17,-51.68 166.67,-51.68l542.99 0 0 125.6 -526.57 -0.96c-27.7,0 -49.28,6.27 -64.73,18.84 -15.46,12.55 -23.19,32.68 -23.19,60.38 0,27.7 7.73,47.83 23.19,60.39 15.45,12.56 37.03,18.84 64.73,18.84l345.89 0c71.51,0 127.06,17.55 166.67,52.66 39.62,35.1 59.42,87.12 59.42,156.03 0,68.28 -19.8,120.13 -59.42,155.56 -39.61,35.43 -95.16,53.14 -166.67,53.14l-571.98 0z"/>
  </g>
 </g>
</svg>
