<?xml version="1.0" encoding="UTF-8"?>
<!DOCTYPE svg PUBLIC "-//W3C//DTD SVG 1.1//EN" "http://www.w3.org/Graphics/SVG/1.1/DTD/svg11.dtd">
<!-- Creator: CorelDRAW -->
<svg xmlns="http://www.w3.org/2000/svg" xml:space="preserve" width="57.91mm" height="19.69mm" version="1.1" style="shape-rendering:geometricPrecision; text-rendering:geometricPrecision; image-rendering:optimizeQuality; fill-rule:evenodd; clip-rule:evenodd"
viewBox="0 0 5791 1969"
 xmlns:xlink="http://www.w3.org/1999/xlink"
 xmlns:xodm="http://www.corel.com/coreldraw/odm/2003">
 <defs>
  <style type="text/css">
   <![CDATA[
    .fil2 {fill:#4CBD70}
    .fil1 {fill:white}
    .fil0 {fill:white;fill-rule:nonzero}
   ]]>
  </style>
 </defs>
 <g id="Camada_x0020_1">
  <metadata id="CorelCorpID_0Corel-Layer"/>
  <path class="fil0" d="M160.02 1850.35c-31.3,0 -57.18,-1.63 -77.49,-4.88 -20.37,-3.26 -35.48,-10.39 -45.4,-21.39 -9.92,-11.08 -14.88,-28.28 -14.88,-51.53 0,-23.79 4.65,-41.22 13.95,-52.38 9.3,-11.08 24.1,-18.36 44.24,-21.62 20.23,-3.33 46.73,-5.03 79.58,-5.03 26.66,0 48.97,0.62 67.03,1.78 17.97,1.24 34.09,3.33 48.35,6.43 -0.31,-20.15 -1.71,-36.03 -4.11,-47.58 -2.4,-11.62 -6.97,-20.22 -13.64,-25.8 -6.66,-5.58 -16.35,-9.14 -29.13,-10.77 -12.79,-1.55 -29.83,-2.4 -50.99,-2.4 -24.25,0 -43.16,0.54 -56.87,1.62 -13.72,1.01 -23.64,2.95 -29.83,5.66 -6.2,2.71 -10.16,6.66 -11.7,11.78 -1.63,5.19 -2.41,11.85 -2.41,19.99l-43.54 0c0,-16.35 2.17,-29.52 6.66,-39.52 4.49,-9.99 12.09,-17.51 22.78,-22.7 10.77,-5.12 25.49,-8.6 44.17,-10.38 18.67,-1.86 42.31,-2.79 70.74,-2.79 30.53,0 55.17,2.01 73.85,5.96 18.75,3.88 32.93,11.01 42.69,21.23 9.77,10.15 16.35,24.49 19.76,42.78 3.41,18.28 5.12,41.92 5.12,70.82l0 125.76 -43.55 0 0 -17.9c-5.19,5.42 -12.32,9.76 -21.39,13.1 -9.06,3.33 -21.15,5.81 -36.18,7.43 -15.04,1.55 -34.33,2.33 -57.81,2.33zm0 -35.41c25.88,0 46.57,-0.31 61.99,-0.85 15.42,-0.62 26.97,-2.33 34.64,-5.04 7.59,-2.71 12.63,-7.13 15.11,-13.17 2.4,-6.05 3.64,-14.49 3.64,-25.42l0 -40.14 -115.38 -1.39c-20.38,-0.31 -36.88,0 -49.36,0.77 -12.47,0.85 -22,2.64 -28.51,5.5 -6.51,2.79 -10.85,7.13 -13.02,13.18 -2.17,5.96 -3.33,14.02 -3.33,24.17 0,9.84 1.16,17.59 3.33,23.33 2.17,5.81 6.51,9.99 13.02,12.7 6.51,2.79 16.04,4.5 28.51,5.27 12.48,0.7 28.98,1.09 49.36,1.09z"/>
  <path id="_1" class="fil0" d="M526.31 1850.35c-34.17,0 -61.14,-3.72 -80.82,-11.24 -19.6,-7.44 -33.63,-19.99 -42,-37.65 -8.29,-17.59 -12.47,-41.77 -12.47,-72.3l0 -145.29 43.86 0 0 145.29c0,17.28 1.39,31.46 4.18,42.54 2.79,11.16 7.75,19.76 14.88,25.88 7.13,6.12 17.12,10.46 30.06,12.86 12.94,2.41 29.6,3.65 50.06,3.65 30.3,0 54.01,-2.56 71.29,-7.52 17.28,-4.96 29.44,-12.86 36.65,-23.48 7.2,-10.69 10.77,-24.56 10.77,-41.69l0 -157.53 43.62 0 0 261.52 -43.62 0 0 -34.71c-6.36,8.75 -14.34,16.11 -24.02,22 -9.69,5.89 -22.63,10.31 -38.82,13.25 -16.2,2.95 -37.43,4.42 -63.62,4.42z"/>
  <path id="_2" class="fil0" d="M892.21 1845.39c-26.65,0 -48.04,-2.71 -64.08,-8.06 -16.04,-5.35 -27.66,-14.88 -34.79,-28.59 -7.21,-13.72 -10.77,-32.93 -10.77,-57.81l0 -238.58 43.55 0 0 71.52 160.93 0 0 35.88 -160.93 0 0 131.18c0,16.97 1.55,29.6 4.64,37.89 3.1,8.37 9.38,13.8 18.83,16.35 9.46,2.64 23.64,3.88 42.62,3.88 16.74,0 29.99,-0.54 39.6,-1.55 9.61,-1.09 16.66,-3.95 21.23,-8.52 4.49,-4.65 7.36,-12.25 8.6,-22.86 1.24,-10.54 1.78,-25.5 1.78,-44.71l38.58 0c0,25.1 -1.55,45.25 -4.65,60.44 -3.1,15.11 -8.6,26.5 -16.49,34.25 -7.98,7.74 -19.07,12.86 -33.4,15.42 -14.34,2.55 -32.7,3.87 -55.25,3.87z"/>
  <path id="_3" class="fil0" d="M1219.67 1850.35c-29.21,0 -54.08,-1.47 -74.46,-4.42 -20.46,-2.94 -36.96,-8.99 -49.52,-18.13 -12.55,-9.14 -21.69,-22.94 -27.43,-41.22 -5.81,-18.29 -8.68,-42.78 -8.68,-73.3 0,-29.68 2.87,-53.47 8.68,-71.29 5.74,-17.9 14.88,-31.31 27.43,-40.45 12.56,-9.07 29.06,-15.11 49.52,-18.13 20.38,-3.02 45.25,-4.57 74.46,-4.57 29.37,0 54.16,1.55 74.54,4.57 20.38,3.02 36.81,9.06 49.36,18.13 12.56,9.14 21.78,22.55 27.51,40.45 5.73,17.82 8.6,41.61 8.6,71.29 0,30.52 -2.87,55.01 -8.6,73.3 -5.73,18.28 -14.95,32.08 -27.51,41.22 -12.55,9.14 -28.98,15.19 -49.36,18.13 -20.38,2.95 -45.17,4.42 -74.54,4.42zm116.46 -137.07c0,-21.62 -1.16,-38.98 -3.33,-52 -2.17,-13.02 -6.97,-22.78 -14.41,-29.37 -7.44,-6.58 -18.99,-11 -34.64,-13.32 -15.65,-2.25 -37.04,-3.41 -64.08,-3.41 -26.96,0 -48.27,1.16 -64,3.41 -15.81,2.32 -27.36,6.74 -34.79,13.32 -7.37,6.59 -12.17,16.35 -14.42,29.37 -2.17,13.02 -3.25,30.38 -3.25,52 0,22.39 1.08,40.29 3.25,53.77 2.25,13.48 7.05,23.56 14.42,30.3 7.43,6.74 18.98,11.23 34.79,13.4 15.73,2.17 37.04,3.34 64,3.34 27.04,0 48.43,-1.17 64.08,-3.34 15.65,-2.17 27.2,-6.66 34.64,-13.4 7.44,-6.74 12.24,-16.82 14.41,-30.3 2.17,-13.48 3.33,-31.38 3.33,-53.77z"/>
  <path id="_4" class="fil0" d="M1447.26 1845.39l0 -261.52 43.54 0 0 32.47c6.51,-8.76 14.34,-16.12 23.41,-22.01 9.06,-5.89 20.68,-10.38 34.86,-13.32 14.11,-2.95 32.24,-4.42 54.32,-4.42 27.43,0 49.75,3.72 67.03,11.16 17.2,7.36 29.91,20.14 38.12,38.35 7.44,-11.54 16.35,-20.92 26.81,-28.28 10.39,-7.36 23.56,-12.71 39.37,-16.12 15.8,-3.41 35.25,-5.11 58.42,-5.11 27.59,0 49.98,3.8 67.18,11.23 17.28,7.52 29.99,20.31 38.05,38.28 8.13,17.98 12.16,42.7 12.16,74l0 145.29 -43.62 0 0 -145.29c0,-23.94 -2.48,-42.15 -7.44,-54.63 -5.04,-12.47 -13.33,-20.99 -24.87,-25.64 -11.63,-4.58 -27.2,-6.9 -46.88,-6.9 -38.59,0 -66.1,5.66 -82.53,17.05 -16.42,11.31 -24.64,29.83 -24.64,55.56l0 -0.16c0.16,4.65 0.24,9.61 0.24,14.72l0 145.29 -43.63 0 0 -145.29c0,-23.94 -2.48,-42.15 -7.44,-54.63 -5.04,-12.47 -13.33,-20.99 -24.87,-25.64 -11.55,-4.58 -27.2,-6.9 -46.88,-6.9 -38.59,0 -66.1,5.66 -82.52,17.05 -16.43,11.31 -24.65,29.83 -24.65,55.56l0 159.85 -43.54 0z"/>
  <path id="_5" class="fil0" d="M2161.77 1850.35c-31.3,0 -57.18,-1.63 -77.49,-4.88 -20.37,-3.26 -35.48,-10.39 -45.4,-21.39 -9.92,-11.08 -14.88,-28.28 -14.88,-51.53 0,-23.79 4.65,-41.22 13.95,-52.38 9.3,-11.08 24.1,-18.36 44.24,-21.62 20.23,-3.33 46.73,-5.03 79.58,-5.03 26.66,0 48.97,0.62 67.03,1.78 17.97,1.24 34.09,3.33 48.35,6.43 -0.31,-20.15 -1.71,-36.03 -4.11,-47.58 -2.4,-11.62 -6.97,-20.22 -13.64,-25.8 -6.66,-5.58 -16.35,-9.14 -29.13,-10.77 -12.79,-1.55 -29.83,-2.4 -50.99,-2.4 -24.25,0 -43.16,0.54 -56.87,1.62 -13.72,1.01 -23.64,2.95 -29.83,5.66 -6.2,2.71 -10.16,6.66 -11.7,11.78 -1.63,5.19 -2.41,11.85 -2.41,19.99l-43.54 0c0,-16.35 2.17,-29.52 6.66,-39.52 4.49,-9.99 12.09,-17.51 22.78,-22.7 10.77,-5.12 25.49,-8.6 44.17,-10.38 18.67,-1.86 42.31,-2.79 70.74,-2.79 30.53,0 55.17,2.01 73.85,5.96 18.75,3.88 32.93,11.01 42.69,21.23 9.77,10.15 16.35,24.49 19.76,42.78 3.41,18.28 5.12,41.92 5.12,70.82l0 125.76 -43.55 0 0 -17.9c-5.19,5.42 -12.32,9.76 -21.39,13.1 -9.06,3.33 -21.15,5.81 -36.18,7.43 -15.04,1.55 -34.33,2.33 -57.81,2.33zm0 -35.41c25.88,0 46.57,-0.31 61.99,-0.85 15.42,-0.62 26.97,-2.33 34.64,-5.04 7.59,-2.71 12.63,-7.13 15.11,-13.17 2.4,-6.05 3.64,-14.49 3.64,-25.42l0 -40.14 -115.38 -1.39c-20.38,-0.31 -36.88,0 -49.36,0.77 -12.47,0.85 -22,2.64 -28.51,5.5 -6.51,2.79 -10.85,7.13 -13.02,13.18 -2.17,5.96 -3.33,14.02 -3.33,24.17 0,9.84 1.16,17.59 3.33,23.33 2.17,5.81 6.51,9.99 13.02,12.7 6.51,2.79 16.04,4.5 28.51,5.27 12.48,0.7 28.98,1.09 49.36,1.09z"/>
  <path id="_6" class="fil0" d="M2546.5 1850.35c-29.21,0 -54.08,-1.47 -74.46,-4.42 -20.46,-2.94 -36.96,-8.99 -49.52,-18.13 -12.55,-9.14 -21.69,-22.94 -27.43,-41.22 -5.81,-18.29 -8.68,-42.78 -8.68,-73.3 0,-29.68 2.87,-53.47 8.68,-71.29 5.74,-17.9 14.88,-31.31 27.43,-40.45 12.56,-9.07 29.06,-15.11 49.52,-18.13 20.38,-3.02 45.25,-4.57 74.46,-4.57 34.95,0 63.7,2.01 86.32,6.04 22.63,4.03 39.44,12.24 50.29,24.64 10.93,12.4 16.35,31.31 16.35,56.72l-41.77 0c0,-14.64 -3.02,-25.65 -9.06,-32.85 -6.05,-7.29 -17.13,-12.17 -33.17,-14.57 -16.04,-2.4 -39.05,-3.64 -68.96,-3.64 -26.96,0 -48.27,1.16 -64,3.41 -15.81,2.32 -27.36,6.74 -34.79,13.32 -7.37,6.59 -12.17,16.35 -14.42,29.37 -2.17,13.02 -3.25,30.38 -3.25,52 0,22.39 1.08,40.29 3.25,53.77 2.25,13.48 7.05,23.56 14.42,30.3 7.43,6.74 18.98,11.23 34.79,13.4 15.73,2.17 37.04,3.34 64,3.34 22.86,0 41.53,-0.7 56.02,-1.94 14.57,-1.32 25.81,-3.88 33.87,-7.75 7.98,-3.87 13.56,-9.45 16.66,-16.82 3.09,-7.28 4.64,-17.12 4.64,-29.36l41.77 0c0,20.3 -3.02,36.57 -9.07,48.81 -6.04,12.25 -15.26,21.47 -27.66,27.67 -12.4,6.2 -28.28,10.38 -47.58,12.47 -19.29,2.17 -42.23,3.18 -68.65,3.18zm-21.23 118.55l0 -36.34c6.97,0 13.79,-0.38 20.46,-1.16 6.66,-0.7 12.16,-2.48 16.58,-5.19 4.34,-2.71 6.58,-6.98 6.58,-12.71 0,-7.13 -4.02,-11.78 -12.08,-13.95 -7.98,-2.24 -18.52,-3.33 -31.54,-3.33l0 -65.4 29.06 0 0 43.63c19.37,0 33.94,3.25 43.62,9.84 9.69,6.58 14.49,17.67 14.49,33.32 0,13.17 -3.64,23.48 -11,30.99 -7.36,7.44 -17.59,12.71 -30.69,15.73 -13.01,3.02 -28.2,4.57 -45.48,4.57z"/>
  <path id="_7" class="fil0" d="M2918.99 1850.35c-29.21,0 -54.08,-1.47 -74.46,-4.42 -20.46,-2.94 -36.96,-8.99 -49.52,-18.13 -12.55,-9.14 -21.69,-22.94 -27.43,-41.22 -5.81,-18.29 -8.68,-42.78 -8.68,-73.3 0,-29.68 2.87,-53.47 8.68,-71.29 5.74,-17.9 14.88,-31.31 27.43,-40.45 12.56,-9.07 29.06,-15.11 49.52,-18.13 20.38,-3.02 45.25,-4.57 74.46,-4.57 29.37,0 54.15,1.55 74.53,4.57 20.38,3.02 36.81,9.06 49.36,18.13 12.56,9.14 21.78,22.55 27.51,40.45 5.73,17.82 8.6,41.61 8.6,71.29 0,30.52 -2.87,55.01 -8.6,73.3 -5.73,18.28 -14.95,32.08 -27.51,41.22 -12.55,9.14 -28.98,15.19 -49.36,18.13 -20.38,2.95 -45.16,4.42 -74.53,4.42zm116.45 -137.07c0,-21.62 -1.16,-38.98 -3.33,-52 -2.17,-13.02 -6.97,-22.78 -14.41,-29.37 -7.44,-6.58 -18.99,-11 -34.64,-13.32 -15.65,-2.25 -37.03,-3.41 -64.07,-3.41 -26.96,0 -48.27,1.16 -64,3.41 -15.81,2.32 -27.36,6.74 -34.79,13.32 -7.37,6.59 -12.17,16.35 -14.42,29.37 -2.17,13.02 -3.25,30.38 -3.25,52 0,22.39 1.08,40.29 3.25,53.77 2.25,13.48 7.05,23.56 14.42,30.3 7.43,6.74 18.98,11.23 34.79,13.4 15.73,2.17 37.04,3.34 64,3.34 27.04,0 48.42,-1.17 64.07,-3.34 15.65,-2.17 27.2,-6.66 34.64,-13.4 7.44,-6.74 12.24,-16.82 14.41,-30.3 2.17,-13.48 3.33,-31.38 3.33,-53.77zm-218.11 -172.57c0,-18.75 5.58,-33.16 16.66,-43.24 11.16,-10.07 24.95,-15.11 41.45,-15.11 15.73,0 32.32,3.72 49.75,11.16 4.96,2.1 10.38,4.5 16.35,7.05 5.89,2.56 11.86,3.88 17.9,3.88 7.27,0 12,-1.47 14.32,-4.26 2.25,-2.79 3.41,-8.6 3.41,-17.59l43.55 0c0,20.14 -6.97,35.41 -20.92,45.87 -10.85,8.21 -23.25,12.24 -37.19,12.24 -15.88,0 -32.46,-3.64 -49.74,-10.85 -4.96,-2.17 -10.38,-4.49 -16.35,-7.05 -5.89,-2.55 -11.86,-3.87 -17.9,-3.87 -7.75,0 -12.63,1.39 -14.64,4.18 -2.02,2.79 -3.03,8.68 -3.03,17.59l-43.62 0z"/>
  <path id="_8" class="fil0" d="M3445.05 1767.75c0,19.52 -2.87,34.87 -8.68,46.1 -5.89,11.16 -14.72,19.37 -26.74,24.49 -11.93,5.19 -27.19,8.44 -45.71,9.92 -18.52,1.39 -40.61,2.09 -66.18,2.09 -29.21,0 -54,-1.47 -74.38,-4.42 -20.3,-2.94 -36.73,-8.99 -49.21,-18.13 -12.47,-9.14 -21.62,-22.94 -27.27,-41.22 -5.66,-18.29 -8.53,-42.78 -8.53,-73.3 0,-29.68 2.79,-53.47 8.29,-71.29 5.51,-17.9 14.49,-31.31 26.89,-40.45 12.4,-9.07 28.75,-15.11 48.97,-18.13 20.15,-3.02 44.87,-4.57 74.08,-4.57 33.48,0 61.14,2.4 83.14,7.05 21.93,4.72 38.28,13.63 49.13,26.81 10.77,13.17 16.2,32.46 16.2,57.88l0 56.1 -262.84 0c0.16,19.37 1.47,34.87 4.03,46.49 2.64,11.7 7.75,20.46 15.5,26.35 7.67,5.89 19.21,9.84 34.56,11.7 15.42,1.86 35.87,2.87 61.44,2.87 23.02,0 41.61,-0.47 55.72,-1.4 14.18,-0.93 24.87,-2.94 32.23,-6.04 7.36,-3.1 12.32,-7.75 14.88,-13.95 2.56,-6.2 3.87,-14.49 3.87,-24.95l40.61 0zm-148.47 -152.57c-24.64,0 -44.48,0.93 -59.59,2.71 -15.03,1.86 -26.5,5.35 -34.4,10.61 -7.83,5.2 -13.17,12.95 -15.96,23.25 -2.79,10.31 -4.26,23.87 -4.42,40.6l221.07 0 0 -21.77c0,-10.93 -1.24,-19.91 -3.72,-27.12 -2.48,-7.21 -7.36,-12.86 -14.64,-17.05 -7.29,-4.1 -17.98,-7.05 -32.16,-8.75 -14.1,-1.63 -32.85,-2.48 -56.18,-2.48z"/>
  <path id="_9" class="fil0" d="M3664.96 1850.35c-31.76,0 -57.34,-1.01 -76.63,-3.18 -19.29,-2.09 -33.86,-6.04 -43.78,-11.78 -9.92,-5.73 -16.58,-13.94 -19.99,-24.48 -3.41,-10.62 -5.12,-24.41 -5.12,-41.38l41.77 0c0,9.53 0.7,17.28 2.09,23.09 1.32,5.81 5.19,10.31 11.55,13.41 6.35,3.1 16.66,5.19 30.99,6.35 14.34,1.09 34.41,1.71 60.29,1.71 27.35,0 48.66,-0.62 63.92,-1.71 15.19,-1.16 26.12,-3.25 32.78,-6.35 6.66,-3.1 10.69,-7.6 12.17,-13.56 1.39,-5.89 2.09,-13.64 2.09,-23.33 0,-11.85 -1.01,-20.69 -3.18,-26.57 -2.09,-5.89 -7.05,-9.92 -14.95,-11.94 -7.83,-2.01 -20.46,-3.17 -37.66,-3.25l-103.99 -1.16c-26.81,-0.31 -47.19,-2.56 -61.29,-6.82 -14.1,-4.27 -23.71,-11.7 -28.83,-22.4 -5.11,-10.61 -7.75,-25.8 -7.75,-45.48 0,-18.29 2.87,-32.47 8.53,-42.46 5.65,-10 14.57,-17.13 26.65,-21.31 12.17,-4.26 27.9,-6.82 47.27,-7.6 19.37,-0.85 42.77,-1.31 70.13,-1.31 32.23,0 57.88,1 76.86,3.02 18.99,1.94 33.24,5.65 42.7,11.08 9.45,5.42 15.65,13.4 18.59,23.71 2.95,10.38 4.42,23.87 4.42,40.52l-41.76 0c0,-9.84 -0.7,-17.58 -2.1,-23.24 -1.31,-5.66 -4.96,-9.84 -11,-12.48 -5.97,-2.63 -15.65,-4.34 -29.06,-5.11 -13.32,-0.78 -32.15,-1.16 -56.41,-1.16 -27.5,0 -48.89,0.31 -64.23,0.93 -15.27,0.62 -26.35,2.01 -33.09,4.34 -6.82,2.24 -11,5.81 -12.55,10.77 -1.48,4.88 -2.25,11.7 -2.25,20.3 0,8.75 0.46,15.73 1.47,20.76 1.01,5.12 3.64,8.92 7.83,11.47 4.26,2.56 11.16,4.26 20.76,5.12 9.61,0.85 23.1,1.31 40.3,1.47l89.73 0.93c26.89,0.31 47.34,2.48 61.37,6.66 14.02,4.19 23.55,11.78 28.59,22.94 5.11,11.16 7.59,27.2 7.59,48.27 0,18.91 -2.71,33.79 -8.29,44.71 -5.5,10.85 -14.33,18.91 -26.42,24.18 -12.09,5.19 -28.05,8.6 -47.81,10.07 -19.76,1.55 -43.86,2.25 -72.3,2.25z"/>
  <path class="fil0" d="M1597.06 1267.89l0 -1267.79 158.33 0 0 1135.65 1003.81 0 0 132.14 -1162.14 0zm1085.07 0l739.53 -1267.79 211.3 0 739.55 1267.79 -185.1 0 -158.33 -290.46 -1003.82 0 -158.32 290.46 -184.81 0zm422.58 -422.59l845.2 0 -422.6 -739.54 -422.6 739.54zm1266.73 422.59l0 -1267.79 848.56 0c123.69,0 223.49,5.99 299.21,18.04 75.71,12.03 132.98,32.55 172.14,60.85 39.03,28.19 65.35,66.49 79.16,114.67 13.81,48.17 20.57,108.04 20.57,179.46l0 32.96c0,68.32 -6.99,126.33 -20.85,173.83 -13.89,47.58 -41.13,86.09 -81.42,115.23 -40.15,29.04 -98.39,50.52 -174.11,63.95 -76,13.47 -175.94,20.29 -299.77,20.29l-684.87 0 0 488.51 -158.62 0zm1261.3 -894.77c0,-52.12 -5.14,-94.17 -14.93,-125.37 -9.79,-31.2 -29.68,-54.95 -59.44,-71 -29.55,-15.92 -74.16,-26.69 -132.98,-31.83 -58.8,-5.15 -137.62,-7.89 -235.81,-7.89l-659.52 0 0 505.14 659.52 0c98.32,0 177.01,-3.03 235.81,-9.29 58.82,-6.28 103.49,-18.06 132.98,-34.66 29.82,-16.79 49.69,-40.9 59.44,-71.84 9.83,-31.19 14.93,-71.28 14.93,-120.3l0 -32.96z"/>
  <path class="fil1" d="M-0.08 160.36l0 -160.26 1112.59 0 320.72 204.68 0 864.89c-30.54,0 -288.43,188.8 -320.72,198.22l-1112.59 0 0 -484.96 160.22 0 0 324.71 905.6 0 207.24 -132.25 0 -682.77 -207.24 -132.26 -905.6 0 0 486.86 -160.22 0 0 -486.86z"/>
  <path class="fil2" d="M909.17 519.5c156.45,0 156.43,237.67 0,237.67 -31.22,0 -59.63,-12.04 -80.84,-31.74l-185.05 113.51c21.45,75.35 -34.92,151.43 -114.3,151.43 -156.44,0 -156.45,-237.65 0,-237.65 31.21,0 59.6,12.04 80.81,31.71l185.07 -113.53 0 -65.14 -185.07 -113.52c-75.3,69.9 -199.64,16.92 -199.64,-87.12 0,-156.44 237.66,-156.45 237.66,0 0,11.31 -1.58,22.25 -4.53,32.61l185.05 113.51c21.2,-19.7 49.62,-31.74 80.84,-31.74z"/>
 </g>
</svg>
